<svg xmlns="http://www.w3.org/2000/svg" xmlns:xlink="http://www.w3.org/1999/xlink" version="1.1" x="0px" y="0px" viewBox="0 0 512 640" enable-background="new 0 0 512 512" xml:space="preserve"><g><path d="M443.3,276.6c0.7-5.1-0.8-10.3-4.1-14.3l-76.1-93.1l6.3-13.2c4.5-9.3,0.5-20.5-8.8-25L242.3,74.4   c-3.8-1.8-7.9-1.9-11.7-1.2c-3.3-2.8-7.4-4.7-12.1-4.7H87.2c-10.4,0-18.7,8.4-18.7,18.7v337.5c0,10.4,8.4,18.7,18.7,18.7h131.2l0,0   l0,0c0.3,0,0.6-0.1,0.9-0.1c0.2,0,0.4,0.1,0.6,0.1c5.7,0,11.1-2.7,14.7-7.4l201.1-146.7C440,286.3,442.7,281.7,443.3,276.6z    M327.6,156.8l-90.3,188.6V113.5L327.6,156.8z M199.7,406H106V106h93.7V406z M269.9,364l75.4-157.4l52.4,64.1L269.9,364z"/><circle cx="152.9" cy="359.1" r="28.1"/></g><text x="0" y="527" fill="#000000" font-size="5px" font-weight="bold" font-family="'Helvetica Neue', Helvetica, Arial-Unicode, Arial, Sans-serif"></text><text x="0" y="532" fill="#000000" font-size="5px" font-weight="bold" font-family="'Helvetica Neue', Helvetica, Arial-Unicode, Arial, Sans-serif"></text></svg>