<svg xmlns="http://www.w3.org/2000/svg" xmlns:xlink="http://www.w3.org/1999/xlink" version="1.1" x="0px" y="0px" viewBox="0 0 50 62.5" enable-background="new 0 0 50 50" xml:space="preserve"><g><path d="M31.32,25.001c0-3.667-1.463-6.938-3.732-9.047c-0.491,0.114-0.982,0.286-1.469,0.521c4.971,3.973,5.358,12.617,0,17.053   c0.484,0.234,0.973,0.405,1.461,0.52c0.271-0.25,0.534-0.517,0.783-0.801C30.27,31.072,31.32,28.144,31.32,25.001z"/><path d="M28.049,15.863c2.232,2.184,3.654,5.469,3.654,9.138c0,3.235-1.083,6.253-3.051,8.498   c-0.196,0.224-0.401,0.435-0.611,0.639c4.521,0.727,8.863-3.405,8.863-9.137C36.904,19.252,32.557,15.148,28.049,15.863z"/><path d="M40.381,11.956C37.4,8.514,33.449,6.6,29.24,6.553L29.239,6.55h-2.067h-2.891h-1.354h-2.26l-0.085,0.008   c-0.563,0.018-1.123,0.07-1.678,0.154l-0.02,0.002l0.011,0c-0.6,0.092-1.195,0.221-1.78,0.391l0.01,0.047   c3.01-0.367,5.196-0.471,7.109-0.529c0.345,0.079,0.642,0.292,0.895,0.494c-0.098,0.028-0.195,0.058-0.292,0.088   c-0.4,0.087-0.854,0.192-1.214,0.276c-0.485-0.467-0.747-0.62-0.904-0.711c-2.884,0.21-5.093,0.548-6.154,0.711   c0.15-0.108,0.357-0.241,0.514-0.34c-1.243,0.364-2.427,0.897-3.535,1.576c2.873-0.695,4.978-1.053,6.824-1.336   c0.45,0.422,0.864,0.898,1.218,1.315c-0.058,0.036-0.115,0.072-0.172,0.108c-0.398,0.166-0.876,0.374-1.246,0.535   c-0.254-0.311-0.361-0.438-0.51-0.616c-0.329-0.389-0.546-0.627-0.677-0.77c-1.638,0.322-2.633,0.56-3.51,0.77   c-1.063,0.263-1.414,0.357-2.361,0.616c0.113-0.183,0.273-0.42,0.395-0.598c-1.105,0.683-2.132,1.511-3.063,2.462   c2.689-0.976,4.684-1.555,6.438-2.034c0.467,0.569,0.921,1.144,1.608,2.016c-0.035,0.036-0.07,0.07-0.104,0.106   c-0.365,0.234-0.816,0.533-1.161,0.764c-0.01-0.012-1.126-1.429-1.552-1.964c-2.638,0.831-4.576,1.597-5.507,1.964   c0.068-0.247,0.168-0.574,0.245-0.819c-0.928,0.955-1.759,2.033-2.474,3.211c2.463-1.208,4.319-1.974,5.958-2.622   c1.045,1.322,1.586,1.989,2.089,2.604c-0.023,0.038-0.046,0.075-0.069,0.113c-0.315,0.29-0.707,0.662-1.005,0.947   c-0.383-0.459-0.575-0.691-0.854-1.032c-0.479-0.584-0.88-1.084-1.146-1.416c-1.435,0.632-2.288,1.048-3.042,1.416   c-0.914,0.454-1.212,0.609-2.017,1.032c0.013-0.301,0.04-0.701,0.061-1.001c-0.712,1.182-1.307,2.464-1.766,3.825   c2.196-1.392,3.885-2.313,5.382-3.101c1.277,1.533,2.14,2.499,2.661,3.081c-0.014,0.042-0.028,0.083-0.042,0.125   c-0.253,0.333-0.566,0.761-0.804,1.088c-1.219-1.316-2.073-2.304-2.532-2.834C8.598,17.945,7.034,19,6.283,19.507   c-0.053-0.343-0.112-0.802-0.156-1.146c-0.456,1.362-0.776,2.803-0.94,4.299c1.888-1.528,3.381-2.571,4.713-3.47   c1.558,1.693,2.706,2.833,3.33,3.453c-0.004,0.04-0.008,0.081-0.013,0.121c-0.182,0.367-0.405,0.841-0.573,1.203   c-0.607-0.579-0.804-0.771-1.334-1.292c-0.799-0.788-1.458-1.468-1.811-1.834c-1.137,0.838-1.795,1.367-2.375,1.834   c-0.704,0.575-0.929,0.768-1.537,1.292c-0.127-0.374-0.286-0.876-0.405-1.253c-0.08,0.75-0.122,1.513-0.122,2.287   c0,0.773,0.041,1.536,0.122,2.284c2.09-2.056,3.396-3.182,3.953-3.663c1.778,1.704,2.776,2.569,4.086,3.645   c0.004,0.041,0.008,0.081,0.013,0.121c-0.102,0.361-0.224,0.824-0.316,1.176c-1.876-1.42-3.241-2.638-3.823-3.158   c-1.525,1.419-2.767,2.683-3.235,3.158c-0.208-0.363-0.474-0.856-0.673-1.227c0.164,1.497,0.484,2.938,0.939,4.3   c1.397-1.551,2.389-2.571,3.209-3.405c1.938,1.493,3.462,2.51,4.821,3.385c0.014,0.043,0.027,0.084,0.042,0.126   c-0.031,0.325-0.062,0.736-0.085,1.052c-0.845-0.506-1.119-0.678-1.858-1.145c-1.155-0.733-2.088-1.385-2.59-1.734   c-0.751,0.799-1.201,1.296-1.597,1.734c-0.458,0.51-0.618,0.692-1.013,1.145c-0.279-0.328-0.642-0.774-0.913-1.109   c0.459,1.361,1.054,2.644,1.766,3.825c1.244-1.515,2.066-2.454,2.558-3.015c2.234,1.349,3.948,2.238,5.466,2.996   c0.022,0.037,0.045,0.074,0.068,0.11c0.03,0.28,0.075,0.633,0.111,0.903C13.67,35.389,12.011,34.485,11.12,34   c-0.844,0.998-1.492,1.794-2.067,2.506c-0.34-0.281-0.786-0.665-1.12-0.954c0.714,1.179,1.545,2.257,2.473,3.212   c0.922-1.169,1.319-1.668,2.002-2.514c2.485,1.154,4.357,1.883,6.008,2.495c0.034,0.035,0.068,0.069,0.103,0.104   c0.081,0.223,0.188,0.497,0.272,0.707c-1.013-0.338-1.37-0.466-2.252-0.784c-1.403-0.511-2.571-0.991-3.198-1.251   c-0.331,0.417-0.66,0.834-0.988,1.251c-0.207,0.262-0.413,0.523-0.619,0.784c-0.392-0.221-0.908-0.528-1.294-0.76   c0.93,0.952,1.958,1.78,3.063,2.463c0.5-0.594,0.993-1.213,1.54-1.904c2.683,0.908,4.679,1.443,6.433,1.883   c0.059,0.036,0.118,0.072,0.177,0.108c0.119,0.151,0.267,0.329,0.384,0.466c-2.765-0.583-4.833-1.182-5.827-1.469   c-0.656,0.813-0.946,1.146-1.231,1.469c-0.434-0.151-1.007-0.367-1.436-0.529c1.107,0.68,2.291,1.213,3.534,1.578   c0.439-0.368,0.835-0.805,1.173-1.187c2.819,0.616,4.904,0.927,6.729,1.165c0.106,0.032,0.213,0.063,0.32,0.094   c0.139,0.069,0.298,0.143,0.425,0.199c-1.127-0.104-1.5-0.148-2.51-0.269c-1.567-0.192-2.896-0.417-3.61-0.538   c-0.288,0.292-0.441,0.423-0.577,0.538c-0.168,0.137-0.224,0.176-0.361,0.269c-0.465-0.069-1.082-0.178-1.544-0.26   c1.244,0.361,2.545,0.553,3.886,0.555c0.354-0.006,0.65-0.188,0.901-0.357c1.287,0.125,2.423,0.207,3.452,0.26h-1.958l-0.318,0.088   c-0.046,0.005-0.088,0.008-0.126,0.01h0.088l-0.088,0.023h0.079h6.398l-0.01-0.004c4.141-0.1,8.021-2.009,10.959-5.4   c3.018-3.485,4.68-8.118,4.68-13.046S43.398,15.44,40.381,11.956z M37.955,19.289c-4.652-7.728-13.135-7.662-17.752,0   C23.87,11.058,34.1,10.646,37.955,19.289z M20.361,31.029c4.732,7.361,12.814,7.174,17.436,0C34,38.99,24.214,39.086,20.361,31.029   z M29.08,35.342c-4.937,0-8.953-4.639-8.953-10.341c0-5.702,4.016-10.341,8.953-10.341c4.936,0,8.951,4.639,8.951,10.341   C38.031,30.703,34.016,35.342,29.08,35.342z"/></g><text x="0" y="65" fill="#000000" font-size="5px" font-weight="bold" font-family="'Helvetica Neue', Helvetica, Arial-Unicode, Arial, Sans-serif"></text><text x="0" y="70" fill="#000000" font-size="5px" font-weight="bold" font-family="'Helvetica Neue', Helvetica, Arial-Unicode, Arial, Sans-serif"></text></svg>